<?xml version="1.0" standalone="no"?>
<!DOCTYPE svg PUBLIC "-//W3C//DTD SVG 20010904//EN"
 "http://www.w3.org/TR/2001/REC-SVG-20010904/DTD/svg10.dtd">
<svg version="1.0" xmlns="http://www.w3.org/2000/svg"
 width="1536.000000pt" height="1024.000000pt" viewBox="0 0 1536.000000 1024.000000"
 preserveAspectRatio="xMidYMid meet">

<g transform="translate(0.000000,1024.000000) scale(0.100000,-0.100000)"
fill="#000000" stroke="none">
<path d="M4330 9071 c-160 -17 -325 -68 -402 -123 -34 -25 -56 -32 -120 -39
-345 -35 -642 -252 -764 -560 -78 -196 -85 -493 -18 -681 10 -29 16 -89 18
-178 5 -201 52 -352 167 -535 144 -228 439 -492 781 -698 567 -341 1776 -824
3288 -1312 217 -70 427 -142 465 -159 118 -54 176 -92 1550 -1006 1318 -877
1789 -1179 1935 -1241 395 -168 818 -86 1073 210 71 81 133 192 169 301 31 91
32 101 32 260 1 161 0 167 -32 260 -86 248 -235 404 -572 597 -58 33 -260 143
-450 243 -190 101 -417 222 -505 270 -189 102 -464 249 -660 350 -195 102
-614 329 -1240 673 -115 63 -237 130 -270 148 -66 35 -133 79 -180 116 -16 14
-347 340 -735 727 -388 386 -804 793 -924 905 -864 802 -1541 1300 -1911 1406
-204 58 -503 86 -695 66z m450 -311 c299 -74 553 -221 1009 -584 476 -379 892
-764 1528 -1413 697 -713 1046 -1062 1098 -1099 28 -20 138 -83 245 -141 107
-58 276 -149 375 -203 508 -275 1130 -613 1210 -655 86 -46 194 -104 864 -467
162 -88 400 -216 529 -284 129 -68 256 -140 283 -160 161 -118 250 -303 236
-493 -26 -375 -430 -601 -782 -437 -27 13 -162 97 -300 188 -137 90 -319 208
-404 263 -213 138 -1924 1278 -2211 1474 -469 319 -484 328 -560 356 -92 33
-1206 410 -1380 467 -177 57 -701 243 -920 326 -1254 474 -1979 925 -2171
1348 -63 139 -85 309 -54 427 14 55 14 60 -6 98 -55 109 -75 300 -43 422 62
242 270 398 574 432 49 6 81 17 130 46 77 45 153 74 270 100 115 26 354 20
480 -11z"/>
<path d="M4298 8641 c-47 -9 -89 -18 -92 -21 -3 -3 31 -11 75 -18 93 -15 314
-84 454 -142 144 -60 493 -237 662 -336 376 -220 767 -497 1176 -834 104 -85
203 -166 220 -179 31 -24 31 -24 -3 11 -122 124 -517 488 -725 669 -621 539
-1051 803 -1395 855 -121 18 -261 16 -372 -5z"/>
<path d="M3786 8479 c-70 -16 -169 -71 -217 -119 -75 -75 -119 -183 -119 -291
0 -36 27 -178 36 -188 2 -2 22 13 44 32 77 66 264 147 337 147 28 0 29 -4 -9
95 -18 49 -22 79 -22 170 0 61 6 122 12 138 13 31 8 32 -62 16z"/>
<path d="M4024 8453 c-43 -101 -39 -225 9 -334 l25 -56 75 -6 c106 -9 342 -61
472 -103 450 -148 1066 -494 1715 -962 80 -58 176 -128 215 -155 358 -256 938
-721 1487 -1191 l139 -119 35 34 c19 18 34 37 34 42 0 24 -798 748 -1195 1087
-600 510 -621 527 -835 694 -581 453 -1155 799 -1600 964 -218 81 -447 142
-531 142 -25 0 -33 -6 -45 -37z"/>
<path d="M3832 7910 c-104 -27 -262 -126 -262 -164 0 -23 120 -163 231 -270
255 -247 632 -514 1093 -778 214 -121 876 -457 1186 -601 237 -110 664 -299
890 -394 85 -36 286 -121 445 -190 538 -232 586 -253 593 -253 6 0 44 86 55
122 1 4 -47 30 -108 56 -509 224 -1730 843 -2305 1170 -760 431 -1441 956
-1638 1264 -33 51 -40 57 -72 57 -19 0 -68 -9 -108 -19z"/>
<path d="M4207 7874 c12 -16 81 -88 154 -159 203 -197 424 -369 776 -603 279
-185 406 -260 1008 -592 230 -127 754 -398 1115 -578 179 -88 361 -181 404
-206 44 -26 81 -45 82 -43 2 1 -50 44 -114 94 -64 50 -189 150 -277 222 -460
376 -1116 868 -1490 1118 -465 310 -909 547 -1240 661 -78 27 -303 87 -404
107 l-34 7 20 -28z"/>
<path d="M3485 7530 c9 -74 55 -186 111 -273 59 -92 229 -261 364 -361 347
-257 753 -460 1650 -821 140 -57 306 -124 369 -150 62 -25 115 -44 117 -42 2
2 -63 33 -144 70 -173 78 -650 322 -907 462 -482 263 -767 441 -1045 649 -149
111 -388 341 -465 446 -26 36 -49 67 -52 70 -3 3 -2 -20 2 -50z"/>
<path d="M8303 5466 c-50 -58 -98 -138 -134 -226 -16 -40 -29 -73 -29 -75 0
-3 337 -231 1080 -732 890 -600 1926 -1286 2095 -1388 152 -91 176 -100 300
-100 106 0 112 1 173 34 119 64 190 170 199 296 11 145 -58 284 -186 373 -78
54 -235 140 -1311 714 -201 107 -475 255 -610 328 -284 154 -645 347 -1090
585 -173 92 -341 183 -373 201 -32 19 -62 34 -67 34 -5 0 -26 -20 -47 -44z"/>
</g>
</svg>
